<?xml version="1.0" encoding="UTF-8" standalone="no"?>
<!DOCTYPE svg PUBLIC "-//W3C//DTD SVG 1.1//EN"
 "http://www.w3.org/Graphics/SVG/1.1/DTD/svg11.dtd">
<!-- Generated by graphviz version 7.0.1 (0)
 -->
<!-- Pages: 1 -->
<svg width="1018pt" height="476pt"
 viewBox="0.00 0.00 1017.79 476.00" xmlns="http://www.w3.org/2000/svg" xmlns:xlink="http://www.w3.org/1999/xlink">
<g id="graph0" class="graph" transform="scale(1 1) rotate(0) translate(4 472)">
<polygon fill="white" stroke="none" points="-4,4 -4,-472 1013.79,-472 1013.79,4 -4,4"/>
<!-- testdata/globPlus/diamondtest.jsonnet -->
<g id="node1" class="node">
<title>testdata/globPlus/diamondtest.jsonnet</title>
<ellipse fill="none" stroke="black" cx="144.29" cy="-378" rx="144.07" ry="18"/>
<text text-anchor="middle" x="144.29" y="-374.3" font-family="Times,serif" font-size="14.00">testdata/globPlus/diamondtest.jsonnet</text>
</g>
<!-- subfolder/diamondtest.jsonnet -->
<g id="node2" class="node">
<title>subfolder/diamondtest.jsonnet</title>
<polygon fill="none" stroke="black" points="888.61,-311.56 743.29,-324 597.97,-311.56 598.1,-291.44 888.47,-291.44 888.61,-311.56"/>
<text text-anchor="middle" x="743.29" y="-302.3" font-family="Times,serif" font-size="14.00">subfolder/diamondtest.jsonnet</text>
</g>
<!-- testdata/globPlus/diamondtest.jsonnet&#45;&gt;subfolder/diamondtest.jsonnet -->
<g id="edge1" class="edge">
<title>testdata/globPlus/diamondtest.jsonnet&#45;&gt;subfolder/diamondtest.jsonnet</title>
<path fill="none" stroke="black" d="M246.92,-365.01C358.64,-351.95 535.97,-331.23 645.68,-318.41"/>
<polygon fill="black" stroke="black" points="646.04,-321.89 655.56,-317.25 645.23,-314.94 646.04,-321.89"/>
</g>
<!-- subfolder/subsubfolder/diamondtest.jsonnet -->
<g id="node3" class="node">
<title>subfolder/subsubfolder/diamondtest.jsonnet</title>
<polygon fill="none" stroke="black" points="580.4,-311.56 376.29,-324 172.17,-311.56 172.36,-291.44 580.21,-291.44 580.4,-311.56"/>
<text text-anchor="middle" x="376.29" y="-302.3" font-family="Times,serif" font-size="14.00">subfolder/subsubfolder/diamondtest.jsonnet</text>
</g>
<!-- testdata/globPlus/diamondtest.jsonnet&#45;&gt;subfolder/subsubfolder/diamondtest.jsonnet -->
<g id="edge2" class="edge">
<title>testdata/globPlus/diamondtest.jsonnet&#45;&gt;subfolder/subsubfolder/diamondtest.jsonnet</title>
<path fill="none" stroke="black" d="M197.8,-360.85C233.61,-350.05 280.74,-335.83 317.58,-324.71"/>
<polygon fill="black" stroke="black" points="318.16,-328.2 326.72,-321.96 316.13,-321.49 318.16,-328.2"/>
</g>
<!-- testdata/globPlus/subfolder/diamondtest.jsonnet -->
<g id="node4" class="node">
<title>testdata/globPlus/subfolder/diamondtest.jsonnet</title>
<polygon fill="none" stroke="black" points="442.72,-228.44 665.29,-216 887.86,-228.44 887.65,-248.56 442.93,-248.56 442.72,-228.44"/>
<text text-anchor="middle" x="665.29" y="-230.3" font-family="Times,serif" font-size="14.00">testdata/globPlus/subfolder/diamondtest.jsonnet</text>
</g>
<!-- subfolder/diamondtest.jsonnet&#45;&gt;testdata/globPlus/subfolder/diamondtest.jsonnet -->
<g id="edge3" class="edge">
<title>subfolder/diamondtest.jsonnet&#45;&gt;testdata/globPlus/subfolder/diamondtest.jsonnet</title>
<path fill="none" stroke="black" d="M727.88,-291.17C716.84,-281.26 701.76,-267.73 689.17,-256.43"/>
<polygon fill="black" stroke="black" points="691.84,-254.13 682.06,-250.05 687.16,-259.34 691.84,-254.13"/>
</g>
<!-- testdata/globPlus/subfolder/subsubfolder/diamondtest.jsonnet -->
<g id="node7" class="node">
<title>testdata/globPlus/subfolder/subsubfolder/diamondtest.jsonnet</title>
<polygon fill="none" stroke="black" points="171.93,-84.44 453.29,-72 734.65,-84.44 734.39,-104.56 172.19,-104.56 171.93,-84.44"/>
<text text-anchor="middle" x="453.29" y="-86.3" font-family="Times,serif" font-size="14.00">testdata/globPlus/subfolder/subsubfolder/diamondtest.jsonnet</text>
</g>
<!-- subfolder/subsubfolder/diamondtest.jsonnet&#45;&gt;testdata/globPlus/subfolder/subsubfolder/diamondtest.jsonnet -->
<g id="edge6" class="edge">
<title>subfolder/subsubfolder/diamondtest.jsonnet&#45;&gt;testdata/globPlus/subfolder/subsubfolder/diamondtest.jsonnet</title>
<path fill="none" stroke="black" d="M381.34,-290.96C394.2,-255.2 428.33,-160.37 444.52,-115.36"/>
<polygon fill="black" stroke="black" points="447.71,-116.83 447.8,-106.24 441.13,-114.46 447.71,-116.83"/>
</g>
<!-- subsubfolder/diamondtest.jsonnet -->
<g id="node5" class="node">
<title>subsubfolder/diamondtest.jsonnet</title>
<polygon fill="none" stroke="black" points="826.14,-167.56 665.29,-180 504.44,-167.56 504.59,-147.44 825.99,-147.44 826.14,-167.56"/>
<text text-anchor="middle" x="665.29" y="-158.3" font-family="Times,serif" font-size="14.00">subsubfolder/diamondtest.jsonnet</text>
</g>
<!-- testdata/globPlus/subfolder/diamondtest.jsonnet&#45;&gt;subsubfolder/diamondtest.jsonnet -->
<g id="edge4" class="edge">
<title>testdata/globPlus/subfolder/diamondtest.jsonnet&#45;&gt;subsubfolder/diamondtest.jsonnet</title>
<path fill="none" stroke="black" d="M665.29,-215.7C665.29,-208.41 665.29,-199.73 665.29,-191.54"/>
<polygon fill="black" stroke="black" points="668.79,-191.62 665.29,-181.62 661.79,-191.62 668.79,-191.62"/>
</g>
<!-- subsubfolder/diamondtest.jsonnet&#45;&gt;testdata/globPlus/subfolder/subsubfolder/diamondtest.jsonnet -->
<g id="edge7" class="edge">
<title>subsubfolder/diamondtest.jsonnet&#45;&gt;testdata/globPlus/subfolder/subsubfolder/diamondtest.jsonnet</title>
<path fill="none" stroke="black" d="M622.9,-147C589.39,-135.94 542.42,-120.43 506.4,-108.54"/>
<polygon fill="black" stroke="black" points="507.64,-105.26 497.04,-105.45 505.44,-111.91 507.64,-105.26"/>
</g>
<!-- ../../diamondtest.jsonnet -->
<g id="node6" class="node">
<title>../../diamondtest.jsonnet</title>
<polygon fill="none" stroke="black" points="418.19,-23.56 298.29,-36 178.38,-23.56 178.49,-3.44 418.08,-3.44 418.19,-23.56"/>
<text text-anchor="middle" x="298.29" y="-14.3" font-family="Times,serif" font-size="14.00">../../diamondtest.jsonnet</text>
</g>
<!-- ../../diamondtest.jsonnet&#45;&gt;testdata/globPlus/diamondtest.jsonnet -->
<g id="edge5" class="edge">
<title>../../diamondtest.jsonnet&#45;&gt;testdata/globPlus/diamondtest.jsonnet</title>
<path fill="none" stroke="red" d="M235.86,-29.93C209.9,-37.55 181.61,-50.4 163.29,-72 137.12,-102.84 144.29,-120.55 144.29,-161 144.29,-235 144.29,-235 144.29,-235 144.29,-274.26 144.29,-319.62 144.29,-348.31"/>
<polygon fill="red" stroke="red" points="140.79,-348 144.29,-358 147.79,-348 140.79,-348"/>
</g>
<!-- testdata/globPlus/subfolder/subsubfolder/diamondtest.jsonnet&#45;&gt;../../diamondtest.jsonnet -->
<g id="edge9" class="edge">
<title>testdata/globPlus/subfolder/subsubfolder/diamondtest.jsonnet&#45;&gt;../../diamondtest.jsonnet</title>
<path fill="none" stroke="black" d="M418.12,-73.12C394.93,-62.64 364.45,-48.88 340.04,-37.85"/>
<polygon fill="black" stroke="black" points="341.57,-34.71 331.02,-33.78 338.69,-41.09 341.57,-34.71"/>
</g>
<!-- . -->
<g id="node8" class="node">
<title>.</title>
<polygon fill="none" stroke="black" points="117.29,-444.44 144.29,-432 171.29,-444.44 171.26,-464.56 117.31,-464.56 117.29,-444.44"/>
<text text-anchor="middle" x="144.29" y="-446.3" font-family="Times,serif" font-size="14.00">.</text>
</g>
<!-- .&#45;&gt;testdata/globPlus/diamondtest.jsonnet -->
<g id="edge8" class="edge">
<title>.&#45;&gt;testdata/globPlus/diamondtest.jsonnet</title>
<path fill="none" stroke="black" d="M144.29,-431.7C144.29,-424.41 144.29,-415.73 144.29,-407.54"/>
<polygon fill="black" stroke="black" points="147.79,-407.62 144.29,-397.62 140.79,-407.62 147.79,-407.62"/>
</g>
<!-- glob+://**/diamondtest.jsonnet -->
<g id="node9" class="node">
<title>glob+://**/diamondtest.jsonnet</title>
<polygon fill="none" stroke="grey" stroke-dasharray="5,2" points="1009.79,-396 822.79,-396 822.79,-360 1009.79,-360 1009.79,-396"/>
<text text-anchor="middle" x="916.29" y="-374.3" font-family="Times,serif" font-size="14.00" fill="grey">glob+://**/diamondtest.jsonnet</text>
</g>
<!-- glob+://**/diamondtest.jsonnet&#45;&gt;subfolder/diamondtest.jsonnet -->
<g id="edge10" class="edge">
<title>glob+://**/diamondtest.jsonnet&#45;&gt;subfolder/diamondtest.jsonnet</title>
<path fill="none" stroke="grey" stroke-dasharray="5,2" d="M873.08,-359.52C847.57,-349.2 815.29,-336.14 789.31,-325.62"/>
<polygon fill="grey" stroke="grey" points="790.95,-322.51 780.36,-322 788.32,-329 790.95,-322.51"/>
</g>
<!-- glob+://**/diamondtest.jsonnet&#45;&gt;subfolder/subsubfolder/diamondtest.jsonnet -->
<g id="edge11" class="edge">
<title>glob+://**/diamondtest.jsonnet&#45;&gt;subfolder/subsubfolder/diamondtest.jsonnet</title>
<path fill="none" stroke="grey" stroke-dasharray="5,2" d="M822.53,-364.85C726.71,-352.43 578.29,-333.19 479.25,-320.35"/>
<polygon fill="grey" stroke="grey" points="479.9,-316.9 469.53,-319.09 479,-323.84 479.9,-316.9"/>
</g>
<!-- glob+://**/diamondtest.jsonnet&#45;&gt;subsubfolder/diamondtest.jsonnet -->
<g id="edge12" class="edge">
<title>glob+://**/diamondtest.jsonnet&#45;&gt;subsubfolder/diamondtest.jsonnet</title>
<path fill="none" stroke="grey" stroke-dasharray="5,2" d="M920.04,-359.64C925.99,-327.03 933.49,-256.31 897.29,-216 879.79,-196.52 822.76,-183.34 769.62,-174.99"/>
<polygon fill="grey" stroke="grey" points="770.27,-171.55 759.86,-173.51 769.22,-178.47 770.27,-171.55"/>
</g>
</g>
</svg>
