<?xml version="1.0" encoding="UTF-8" standalone="no"?>
<!DOCTYPE svg PUBLIC "-//W3C//DTD SVG 1.1//EN"
 "http://www.w3.org/Graphics/SVG/1.1/DTD/svg11.dtd">
<!-- Generated by graphviz version 8.0.5 (0)
 -->
<!-- Pages: 1 -->
<svg width="555pt" height="404pt"
 viewBox="0.00 0.00 555.15 404.00" xmlns="http://www.w3.org/2000/svg" xmlns:xlink="http://www.w3.org/1999/xlink">
<g id="graph0" class="graph" transform="scale(1 1) rotate(0) translate(4 400)">
<polygon fill="white" stroke="none" points="-4,4 -4,-400 551.15,-400 551.15,4 -4,4"/>
<!-- testdata/inFileConfigs/importGraph.jsonnet -->
<g id="node1" class="node">
<title>testdata/inFileConfigs/importGraph.jsonnet</title>
<polygon fill="none" stroke="black" points="547.15,-311.56 334.38,-324 121.6,-311.56 121.8,-291.44 546.95,-291.44 547.15,-311.56"/>
<text text-anchor="middle" x="334.38" y="-300.95" font-family="Times,serif" font-size="14.00">testdata/inFileConfigs/importGraph.jsonnet</text>
</g>
<!-- caller.jsonnet -->
<g id="node2" class="node">
<title>caller.jsonnet</title>
<polygon fill="none" stroke="black" points="408.6,-239.56 334.38,-252 260.15,-239.56 260.22,-219.44 408.53,-219.44 408.6,-239.56"/>
<text text-anchor="middle" x="334.38" y="-228.95" font-family="Times,serif" font-size="14.00">caller.jsonnet</text>
</g>
<!-- testdata/inFileConfigs/importGraph.jsonnet&#45;&gt;caller.jsonnet -->
<g id="edge1" class="edge">
<title>testdata/inFileConfigs/importGraph.jsonnet&#45;&gt;caller.jsonnet</title>
<path fill="none" stroke="black" d="M334.38,-291.17C334.38,-283.15 334.38,-272.76 334.38,-263.1"/>
<polygon fill="black" stroke="black" points="337.88,-263.28 334.38,-253.28 330.88,-263.28 337.88,-263.28"/>
</g>
<!-- testdata/inFileConfigs/caller.jsonnet -->
<g id="node3" class="node">
<title>testdata/inFileConfigs/caller.jsonnet</title>
<ellipse fill="none" stroke="black" cx="334.38" cy="-162" rx="143.99" ry="18"/>
<text text-anchor="middle" x="334.38" y="-156.95" font-family="Times,serif" font-size="14.00">testdata/inFileConfigs/caller.jsonnet</text>
</g>
<!-- caller.jsonnet&#45;&gt;testdata/inFileConfigs/caller.jsonnet -->
<g id="edge2" class="edge">
<title>caller.jsonnet&#45;&gt;testdata/inFileConfigs/caller.jsonnet</title>
<path fill="none" stroke="black" d="M334.38,-219.17C334.38,-211.15 334.38,-200.76 334.38,-191.1"/>
<polygon fill="black" stroke="black" points="337.88,-191.28 334.38,-181.28 330.88,-191.28 337.88,-191.28"/>
</g>
<!-- libs/host.libsonnet -->
<g id="node4" class="node">
<title>libs/host.libsonnet</title>
<polygon fill="none" stroke="grey" stroke-dasharray="5,2" points="267.88,-108 152.88,-108 152.88,-72 267.88,-72 267.88,-108"/>
<text text-anchor="middle" x="210.38" y="-84.95" font-family="Times,serif" font-size="14.00" fill="grey">libs/host.libsonnet</text>
</g>
<!-- testdata/inFileConfigs/caller.jsonnet&#45;&gt;libs/host.libsonnet -->
<g id="edge3" class="edge">
<title>testdata/inFileConfigs/caller.jsonnet&#45;&gt;libs/host.libsonnet</title>
<path fill="none" stroke="black" d="M304.36,-144.05C288.15,-134.91 267.93,-123.49 250.4,-113.59"/>
<polygon fill="black" stroke="black" points="252.41,-110.14 241.98,-108.28 248.96,-116.24 252.41,-110.14"/>
</g>
<!-- testdata/inFileConfigs/libs/host.libsonnet -->
<g id="node6" class="node">
<title>testdata/inFileConfigs/libs/host.libsonnet</title>
<ellipse fill="none" stroke="black" cx="210.38" cy="-18" rx="162.41" ry="18"/>
<text text-anchor="middle" x="210.38" y="-12.95" font-family="Times,serif" font-size="14.00">testdata/inFileConfigs/libs/host.libsonnet</text>
</g>
<!-- libs/host.libsonnet&#45;&gt;testdata/inFileConfigs/libs/host.libsonnet -->
<g id="edge5" class="edge">
<title>libs/host.libsonnet&#45;&gt;testdata/inFileConfigs/libs/host.libsonnet</title>
<path fill="none" stroke="black" d="M210.38,-71.7C210.38,-64.24 210.38,-55.32 210.38,-46.97"/>
<polygon fill="black" stroke="black" points="213.88,-47.1 210.38,-37.1 206.88,-47.1 213.88,-47.1"/>
</g>
<!-- glob.stem+://libs/*.libsonnet -->
<g id="node5" class="node">
<title>glob.stem+://libs/*.libsonnet</title>
<polygon fill="none" stroke="grey" stroke-dasharray="5,2" points="172.75,-180 0,-180 0,-144 172.75,-144 172.75,-180"/>
<text text-anchor="middle" x="86.38" y="-156.95" font-family="Times,serif" font-size="14.00" fill="grey">glob.stem+://libs/*.libsonnet</text>
</g>
<!-- glob.stem+://libs/*.libsonnet&#45;&gt;libs/host.libsonnet -->
<g id="edge4" class="edge">
<title>glob.stem+://libs/*.libsonnet&#45;&gt;libs/host.libsonnet</title>
<path fill="none" stroke="grey" stroke-dasharray="5,2" d="M117.35,-143.52C133.45,-134.43 153.31,-123.22 170.54,-113.49"/>
<polygon fill="grey" stroke="grey" points="171.81,-116.22 178.8,-108.26 168.37,-110.13 171.81,-116.22"/>
</g>
<!-- . -->
<g id="node7" class="node">
<title>.</title>
<polygon fill="none" stroke="black" points="307.38,-372.44 334.38,-360 361.38,-372.44 361.35,-392.56 307.4,-392.56 307.38,-372.44"/>
<text text-anchor="middle" x="334.38" y="-372.95" font-family="Times,serif" font-size="14.00">.</text>
</g>
<!-- .&#45;&gt;testdata/inFileConfigs/importGraph.jsonnet -->
<g id="edge6" class="edge">
<title>.&#45;&gt;testdata/inFileConfigs/importGraph.jsonnet</title>
<path fill="none" stroke="black" d="M334.38,-359.7C334.38,-352.24 334.38,-343.32 334.38,-334.97"/>
<polygon fill="black" stroke="black" points="337.88,-335.1 334.38,-325.1 330.88,-335.1 337.88,-335.1"/>
</g>
</g>
</svg>
