<?xml version="1.0" encoding="UTF-8" standalone="no"?>
<!DOCTYPE svg PUBLIC "-//W3C//DTD SVG 1.1//EN"
 "http://www.w3.org/Graphics/SVG/1.1/DTD/svg11.dtd">
<!-- Generated by graphviz version 7.0.1 (0)
 -->
<!-- Pages: 1 -->
<svg width="273pt" height="204pt"
 viewBox="0.00 0.00 572.75 404.00" xmlns="http://www.w3.org/2000/svg" xmlns:xlink="http://www.w3.org/1999/xlink">
<g id="graph0" class="graph" transform="scale(1 1) rotate(0) translate(4 400)">
<polygon fill="white" stroke="none" points="-4,4 -4,-400 568.75,-400 568.75,4 -4,4"/>
<!-- caller.jsonnet -->
<g id="node1" class="node">
<title>caller.jsonnet</title>
<polygon fill="none" stroke="black" points="433,-239.56 361.5,-252 290,-239.56 290.07,-219.44 432.93,-219.44 433,-239.56"/>
<text text-anchor="middle" x="361.5" y="-230.3" font-family="Times,serif" font-size="14.00">caller.jsonnet</text>
</g>
<!-- testdata/inFileConfigs/caller.jsonnet -->
<g id="node2" class="node">
<title>testdata/inFileConfigs/caller.jsonnet</title>
<polygon fill="none" stroke="black" points="191.37,-156.44 361.5,-144 531.63,-156.44 531.47,-176.56 191.53,-176.56 191.37,-156.44"/>
<text text-anchor="middle" x="361.5" y="-158.3" font-family="Times,serif" font-size="14.00">testdata/inFileConfigs/caller.jsonnet</text>
</g>
<!-- caller.jsonnet&#45;&gt;testdata/inFileConfigs/caller.jsonnet -->
<g id="edge1" class="edge">
<title>caller.jsonnet&#45;&gt;testdata/inFileConfigs/caller.jsonnet</title>
<path fill="none" stroke="black" d="M361.5,-219.17C361.5,-210.35 361.5,-198.66 361.5,-188.22"/>
<polygon fill="black" stroke="black" points="365,-188.31 361.5,-178.31 358,-188.31 365,-188.31"/>
</g>
<!-- libs/host.libsonnet -->
<g id="node3" class="node">
<title>libs/host.libsonnet</title>
<polygon fill="none" stroke="black" points="316.88,-95.56 223.5,-108 130.12,-95.56 130.2,-75.44 316.8,-75.44 316.88,-95.56"/>
<text text-anchor="middle" x="223.5" y="-86.3" font-family="Times,serif" font-size="14.00">libs/host.libsonnet</text>
</g>
<!-- testdata/inFileConfigs/caller.jsonnet&#45;&gt;libs/host.libsonnet -->
<g id="edge2" class="edge">
<title>testdata/inFileConfigs/caller.jsonnet&#45;&gt;libs/host.libsonnet</title>
<path fill="none" stroke="black" d="M331.56,-145.81C310.75,-135.26 282.89,-121.12 260.66,-109.85"/>
<polygon fill="black" stroke="black" points="262.43,-106.82 251.93,-105.42 259.26,-113.07 262.43,-106.82"/>
</g>
<!-- testdata/inFileConfigs/libs/host.libsonnet -->
<g id="node5" class="node">
<title>testdata/inFileConfigs/libs/host.libsonnet</title>
<ellipse fill="none" stroke="black" cx="223.5" cy="-18" rx="155.17" ry="18"/>
<text text-anchor="middle" x="223.5" y="-14.3" font-family="Times,serif" font-size="14.00">testdata/inFileConfigs/libs/host.libsonnet</text>
</g>
<!-- libs/host.libsonnet&#45;&gt;testdata/inFileConfigs/libs/host.libsonnet -->
<g id="edge4" class="edge">
<title>libs/host.libsonnet&#45;&gt;testdata/inFileConfigs/libs/host.libsonnet</title>
<path fill="none" stroke="black" d="M223.5,-75.17C223.5,-67.33 223.5,-57.21 223.5,-47.73"/>
<polygon fill="black" stroke="black" points="227,-47.79 223.5,-37.79 220,-47.79 227,-47.79"/>
</g>
<!-- glob.stem+://libs/*.libsonnet -->
<g id="node4" class="node">
<title>glob.stem+://libs/*.libsonnet</title>
<polygon fill="none" stroke="grey" stroke-dasharray="5,2" points="173,-180 0,-180 0,-144 173,-144 173,-180"/>
<text text-anchor="middle" x="86.5" y="-158.3" font-family="Times,serif" font-size="14.00" fill="grey">glob.stem+://libs/*.libsonnet</text>
</g>
<!-- glob.stem+://libs/*.libsonnet&#45;&gt;libs/host.libsonnet -->
<g id="edge3" class="edge">
<title>glob.stem+://libs/*.libsonnet&#45;&gt;libs/host.libsonnet</title>
<path fill="none" stroke="grey" stroke-dasharray="5,2" d="M120.72,-143.52C140.69,-133.31 165.91,-120.42 186.37,-109.97"/>
<polygon fill="grey" stroke="grey" points="187.92,-113.11 195.23,-105.44 184.74,-106.88 187.92,-113.11"/>
</g>
<!-- . -->
<g id="node6" class="node">
<title>.</title>
<polygon fill="none" stroke="black" points="334.5,-372.44 361.5,-360 388.5,-372.44 388.47,-392.56 334.53,-392.56 334.5,-372.44"/>
<text text-anchor="middle" x="361.5" y="-374.3" font-family="Times,serif" font-size="14.00">.</text>
</g>
<!-- testdata/inFileConfigs/importGraph.jsonnet -->
<g id="node7" class="node">
<title>testdata/inFileConfigs/importGraph.jsonnet</title>
<polygon fill="none" stroke="black" points="158.49,-300.44 361.5,-288 564.51,-300.44 564.32,-320.56 158.68,-320.56 158.49,-300.44"/>
<text text-anchor="middle" x="361.5" y="-302.3" font-family="Times,serif" font-size="14.00">testdata/inFileConfigs/importGraph.jsonnet</text>
</g>
<!-- .&#45;&gt;testdata/inFileConfigs/importGraph.jsonnet -->
<g id="edge5" class="edge">
<title>.&#45;&gt;testdata/inFileConfigs/importGraph.jsonnet</title>
<path fill="none" stroke="black" d="M361.5,-359.7C361.5,-351.36 361.5,-341.22 361.5,-332.06"/>
<polygon fill="black" stroke="black" points="365,-332.34 361.5,-322.34 358,-332.34 365,-332.34"/>
</g>
<!-- testdata/inFileConfigs/importGraph.jsonnet&#45;&gt;caller.jsonnet -->
<g id="edge6" class="edge">
<title>testdata/inFileConfigs/importGraph.jsonnet&#45;&gt;caller.jsonnet</title>
<path fill="none" stroke="black" d="M361.5,-287.7C361.5,-280.41 361.5,-271.73 361.5,-263.54"/>
<polygon fill="black" stroke="black" points="365,-263.62 361.5,-253.62 358,-263.62 365,-263.62"/>
</g>
</g>
</svg>
